<?xml version="1.0" encoding="UTF-8"?>
<svg width="126px" height="34px" viewBox="0 0 126 34" version="1.1" xmlns="http://www.w3.org/2000/svg" xmlns:xlink="http://www.w3.org/1999/xlink">
    <!-- Generator: Sketch 55.1 (78136) - https://sketchapp.com -->
    <title>arc_logo_3</title>
    <desc>Created with Sketch.</desc>
    <defs>
        <polygon id="path-1" points="0.0001 0.0004 121.825 0.0004 121.825 32.4814 0.0001 32.4814"/>
    </defs>
    <g id="arc_logo_3" stroke="none" stroke-width="1" fill="none" fill-rule="evenodd">
        <g id="Group-3" transform="translate(2.000000, 1.000000)">
            <mask id="mask-2" fill="white">
                <use xlink:href="#path-1"/>
            </mask>
            <g id="Clip-2"/>
            <path d="M121.8251,18.1514 L121.8251,15.7414 C121.8251,13.0904 121.0871,10.9744 119.6311,9.4514 C118.1721,7.9234 116.1641,7.1474 113.6631,7.1474 C110.9701,7.1474 108.8191,8.0484 107.2701,9.8264 C105.7321,11.5924 104.9531,14.0414 104.9531,17.1034 C104.9531,20.0954 105.7951,22.4844 107.4561,24.2024 C109.1201,25.9224 111.4491,26.7944 114.3791,26.7944 C115.6421,26.7944 116.7851,26.6984 117.7751,26.5064 C118.7711,26.3144 119.7691,25.9824 120.7401,25.5184 L120.9111,25.4374 L120.9111,21.6124 L120.4891,21.7984 C119.4381,22.2654 118.4431,22.6024 117.5291,22.8024 C116.6191,23.0024 115.6201,23.1034 114.5601,23.1034 C113.0031,23.1034 111.7851,22.6514 110.9391,21.7594 C110.1401,20.9164 109.6861,19.7034 109.5901,18.1514 L121.8251,18.1514 Z M117.3761,14.7264 L109.6781,14.7264 C109.8451,13.4554 110.2541,12.4694 110.8971,11.7934 C111.5931,11.0604 112.4971,10.7054 113.6631,10.7054 C114.8251,10.7054 115.7101,11.0564 116.3681,11.7784 C116.9751,12.4494 117.3141,13.4394 117.3761,14.7264 L117.3761,14.7264 Z M97.6501,26.4614 L101.2351,26.4614 L101.2351,0.0004 L96.7131,0.0004 L96.7131,6.9984 C96.7131,7.6154 96.7731,8.4144 96.8921,9.3794 C95.5991,7.8974 93.8151,7.1474 91.5781,7.1474 C89.1861,7.1474 87.2861,8.0334 85.9311,9.7814 C84.5931,11.5044 83.9151,13.9344 83.9151,17.0044 C83.9151,20.0614 84.5851,22.4774 85.9051,24.1854 C87.2441,25.9174 89.1311,26.7944 91.5121,26.7944 C93.8741,26.7944 95.7251,25.9384 97.0231,24.2484 L97.6501,26.4614 Z M96.8951,17.5834 C96.8741,19.5324 96.5161,20.9494 95.8321,21.7944 C95.1641,22.6184 94.0621,23.0374 92.5581,23.0374 C91.2111,23.0374 90.2321,22.5554 89.5661,21.5644 C88.8841,20.5524 88.5371,19.0414 88.5371,17.0704 C88.5371,15.0804 88.8941,13.5344 89.6001,12.4744 C90.2891,11.4414 91.2461,10.9384 92.5251,10.9384 C94.0481,10.9384 95.1281,11.3794 95.8281,12.2844 C96.5361,13.2014 96.8951,14.8004 96.8951,17.0374 L96.8951,17.5834 Z M76.6761,26.4614 L79.9901,26.4614 L79.9901,13.7794 C79.9901,11.5154 79.3531,9.8234 78.0991,8.7494 C76.8561,7.6864 75.0101,7.1474 72.6091,7.1474 C71.5391,7.1474 70.3871,7.2874 69.1841,7.5624 C67.9801,7.8374 66.8541,8.2474 65.8391,8.7774 L65.5871,8.9084 L67.0941,12.2364 L67.3691,12.1064 C68.1531,11.7364 68.9801,11.4114 69.8261,11.1404 C70.6561,10.8744 71.5371,10.7384 72.4431,10.7384 C73.5051,10.7384 74.2891,11.0014 74.7761,11.5174 C75.2681,12.0394 75.5171,12.8564 75.5171,13.9464 L75.5171,14.6354 L72.6341,14.7264 C69.7071,14.8164 67.4891,15.3654 66.0411,16.3574 C64.5541,17.3764 63.8001,18.9024 63.8001,20.8934 C63.8001,22.7544 64.3421,24.2194 65.4121,25.2494 C66.4801,26.2744 67.9741,26.7944 69.8501,26.7944 C71.2931,26.7944 72.4971,26.5824 73.4311,26.1614 C74.2781,25.7794 75.1271,25.0904 75.9571,24.1084 L76.6761,26.4614 Z M75.4841,18.9824 C75.4841,20.3174 75.0831,21.3644 74.2931,22.0934 C73.4961,22.8304 72.4151,23.2034 71.0801,23.2034 C70.1871,23.2034 69.5171,23.0034 69.0901,22.6094 C68.6631,22.2164 68.4551,21.6664 68.4551,20.9264 C68.4551,19.8944 68.8211,19.1534 69.5741,18.6594 C70.3601,18.1434 71.6591,17.8504 73.4361,17.7864 L75.4841,17.6994 L75.4841,18.9824 Z M60.1601,12.0584 L61.5451,8.3724 L61.2921,8.2544 C59.7071,7.5204 57.9031,7.1474 55.9311,7.1474 C52.9971,7.1474 50.7161,8.0194 49.1511,9.7384 C47.5941,11.4504 46.8051,13.9174 46.8051,17.0704 C46.8051,20.1684 47.5591,22.5864 49.0501,24.2584 C50.5481,25.9414 52.7571,26.7944 55.6141,26.7944 C56.7621,26.7944 57.7541,26.7034 58.5631,26.5214 C59.3821,26.3394 60.1631,26.0314 60.8871,25.6064 L61.0341,25.5194 L61.0341,21.4294 L60.5891,21.6784 C59.0891,22.5134 57.4761,22.9374 55.7981,22.9374 C54.3531,22.9374 53.2931,22.4674 52.5541,21.5004 C51.8061,20.5234 51.4271,19.0214 51.4271,17.0374 C51.4271,12.9784 52.8901,11.0044 55.8971,11.0044 C56.9301,11.0044 58.2681,11.3224 59.8781,11.9484 L60.1601,12.0584 Z M45.3551,11.6244 L45.8021,7.3774 L45.5391,7.3204 C45.0101,7.2054 44.3341,7.1474 43.5301,7.1474 C42.3461,7.1474 41.2251,7.4884 40.2001,8.1604 C39.3211,8.7364 38.5791,9.4954 37.9871,10.4214 L37.5201,7.4794 L33.9061,7.4794 L33.9061,26.4614 L38.4121,26.4614 L38.4121,16.5554 C38.4121,15.0134 38.8741,13.7464 39.7841,12.7904 C40.7031,11.8234 41.8741,11.3534 43.3641,11.3534 C43.9361,11.3534 44.4941,11.4184 45.0221,11.5454 L45.3551,11.6244 Z M26.6481,22.1854 C27.4661,21.4314 27.8811,20.3544 27.8811,18.9824 L27.8811,17.5694 L25.7041,17.6614 C23.9041,17.7264 22.5841,18.0264 21.7771,18.5544 C20.9861,19.0744 20.6011,19.8494 20.6011,20.9264 C20.6011,21.7024 20.8221,22.2824 21.2761,22.7014 C21.7281,23.1174 22.4261,23.3284 23.3521,23.3284 C24.7191,23.3284 25.8281,22.9434 26.6481,22.1854 L26.6481,22.1854 Z M24.8811,7.2724 C27.2091,7.2724 28.9991,7.7884 30.2171,8.7954 C27.5021,3.7644 22.1851,0.3454 16.0681,0.3454 C7.1941,0.3454 0.0001,7.5394 0.0001,16.4134 C0.0001,25.2874 7.1941,32.4814 16.0681,32.4814 C21.3421,32.4814 26.0081,29.9294 28.9381,26.0044 L28.2811,23.8504 C27.4171,24.9124 26.5321,25.6504 25.6521,26.0474 C24.7331,26.4614 23.5461,26.6694 22.1221,26.6694 C20.2781,26.6694 18.8141,26.1614 17.7711,25.1584 C16.7261,24.1544 16.1971,22.7184 16.1971,20.8934 C16.1971,18.9464 16.9321,17.4554 18.3831,16.4614 C19.8121,15.4824 22.0071,14.9414 24.9091,14.8514 L27.9151,14.7564 L27.9151,13.9464 C27.9151,12.8234 27.6541,11.9774 27.1391,11.4314 C26.6271,10.8884 25.8121,10.6134 24.7151,10.6134 C23.7961,10.6134 22.9021,10.7514 22.0591,11.0214 C21.2081,11.2944 20.3771,11.6214 19.5871,11.9934 L19.4261,12.0694 L18.0221,8.9644 L18.1691,8.8874 C19.1761,8.3624 20.2921,7.9574 21.4851,7.6834 C22.6771,7.4114 23.8211,7.2724 24.8811,7.2724 L24.8811,7.2724 Z" id="Fill-1" fill="#FF6629" mask="url(#mask-2)"/>
        </g>
    </g>
</svg>